#N canvas 557 123 575 577 12;
#X floatatom 147 205 5 0 0 0 - - -;
#X obj 157 411 *~;
#X obj 154 261 mtof;
#X obj 155 493 dac~;
#X msg 255 394 0;
#X obj 159 374 *~;
#X obj 325 309 line~;
#X obj 311 188 bng 15 250 50 0 empty empty empty 17 7 0 10 -262144
-1 -1;
#X obj 346 207 del 100;
#X obj 153 233 t f b;
#X obj 148 76 notein;
#X obj 139 136 stripnote;
#X obj 204 177 bng 15 250 50 0 empty empty empty 17 7 0 10 -262144
-1 -1;
#X obj 154 296 phasor~;
#X msg 313 255 1 50;
#X msg 362 249 0 1000;
#X msg 254 424 0.9;
#X obj 387 386 loadbang;
#X connect 0 0 9 0;
#X connect 1 0 3 0;
#X connect 1 0 3 1;
#X connect 2 0 13 0;
#X connect 4 0 1 1;
#X connect 5 0 1 0;
#X connect 6 0 5 1;
#X connect 7 0 14 0;
#X connect 7 0 8 0;
#X connect 8 0 15 0;
#X connect 9 0 2 0;
#X connect 9 1 7 0;
#X connect 10 0 11 0;
#X connect 10 1 11 1;
#X connect 11 0 0 0;
#X connect 11 1 12 0;
#X connect 12 0 7 0;
#X connect 13 0 5 0;
#X connect 14 0 6 0;
#X connect 15 0 6 0;
#X connect 16 0 1 1;
#X connect 17 0 16 0;
