#N canvas 190 39 1263 707 10;
#X obj 88 -89 bendin;
#X obj 48 338 dac~;
#X obj 21 -88 notein;
#N canvas 0 23 1440 790 two_ops1p 0;
#X obj 240 118 vsl 12 81 0.1 1 0 1 empty empty a 2 4 0 8 -262144 -1
-1 0 1;
#X obj 254 118 vsl 12 81 0.1 1 0 1 empty empty d 2 4 0 8 -262144 -1
-1 3556 1;
#X obj 282 118 vsl 12 81 0.2 1 0 1 empty empty r 2 4 0 8 -262144 -1
-1 2800 1;
#X obj 268 118 vsl 12 81 0 1 0 1 empty empty s 2 4 0 8 -262144 -1 -1
5300 1;
#X obj 117 121 vradio 15 1 1 5 empty empty empty 0 -8 0 10 -262144
-1 -1 0;
#X obj -319 1029 outlet~;
#X obj -137 204 select 0 1 2 3 4;
#X msg -187 225 0 1 0 1 1 0;
#X msg -167 250 0.5 1.5 0 2 1 0;
#X msg -131 300 0 0.5 0.75 1 2 1;
#X msg -152 278 0 0.5 0.75 0.5 2 1;
#X msg -93 320 0.5 1 0 1 1 0;
#X obj 223 121 vradio 15 1 1 5 empty empty empty 0 -8 0 10 -262144
-1 -1 2;
#X obj 166 207 hsl 128 10 0 1 0 1 empty empty fm 0 6 0 10 -262144 -1
-1 5900 1;
#X obj 104 204 nbx 5 14 0.25 16 0 1 empty empty empty 0 -8 0 10 -262144
-1 -1 3 256;
#X obj 134 118 vsl 12 81 0.1 1 0 1 empty empty a 2 4 0 8 -262144 -1
-1 3700 1;
#X obj 148 118 vsl 12 81 0.1 1 0 1 empty empty d 2 4 0 8 -262144 -1
-1 6956 1;
#X obj 176 118 vsl 12 81 0.2 1 0 1 empty empty r 2 4 0 8 -262144 -1
-1 1500 1;
#X obj 162 118 vsl 12 81 0 1 0 1 empty empty s 2 4 0 8 -262144 -1 -1
2800 1;
#X obj 103 118 vsl 12 81 0 0.5 0 1 empty empty fb 2 4 0 8 -262144 -1
-1 8000 1;
#X obj 209 118 vsl 12 81 0 0.5 0 1 empty empty fb 2 4 0 8 -262144 -1
-1 1200 1;
#X obj 194 118 vsl 10 81 0 1 0 1 empty empty b 2 4 0 8 -262144 -1 -1
6900 1;
#X obj 212 103 hsl 80 10 -1 1 0 1 empty empty kt 0 6 0 10 -262144 -1
-1 5788 1;
#X obj -140 344 list;
#X obj -14 360 select 0 1 2 3 4;
#X msg -51 387 0 1 0 1 1 0;
#X msg -31 412 0.5 1.5 0 2 1 0;
#X msg 5 462 0 0.5 0.75 1 2 1;
#X msg -16 440 0 0.5 0.75 0.5 2 1;
#X msg 43 482 0.5 1 0 1 1 0;
#X obj -4 506 list;
#X obj -305 359 +;
#X obj -486 55 - 8192;
#X obj -486 100 clip -1 1;
#X obj -486 79 / 8192;
#X obj -339 330 int;
#X obj -484 129 * 2;
#X text -455 130 bend range;
#X obj -322 83 pack 0 0;
#X obj -317 302 unpack 0 0;
#X obj -344 145 pack 0 0 0;
#X obj -484 154 t b f;
#X obj -377 418 +;
#X obj -411 389 int;
#X obj -389 361 unpack 0 0;
#X obj -397 524 +;
#X obj -431 495 int;
#X obj -409 467 unpack 0 0;
#X obj -469 583 +;
#X obj -503 554 int;
#X obj -481 526 unpack 0 0;
#X obj -412 6 inlet;
#X obj -364 6 inlet;
#X obj -298 7 inlet;
#X obj 142 343 pack f f f f;
#X obj 136 321 float;
#X obj 157 267 t b f;
#X obj 199 279 t b f;
#X obj 241 291 t b f;
#N canvas 241 83 1172 851 two_ops_1_synth_voice 0;
#X obj -291 214 inlet;
#X obj -345 450 mtof;
#X obj -244 213 inlet;
#X obj 295 440 *;
#X obj 294 489 * 10000;
#X obj 296 466 *;
#X obj -244 236 clip 0 1;
#X obj 355 445 *;
#X obj 354 494 * 10000;
#X obj 356 471 *;
#X obj 403 467 *;
#X obj 402 516 * 10000;
#X obj 404 493 *;
#N canvas 100 80 1108 856 adsr1 0;
#X obj -143 147 inlet;
#X msg 15 502 0;
#X obj 63 365 pack f f;
#X msg -148 457 0.78125 1;
#X msg 64 391 set \$1 \$2;
#X obj 125 589 >=;
#X msg 216 752 0.6625 625.25;
#X obj 157 632 moses 0.001;
#X obj 150 406 pack f f;
#X msg 151 436 set \$1 \$2;
#X msg 170 319 bang;
#X msg 313 372 set 0 \$1;
#X msg -135 357 bang;
#X msg -136 523 0 530.842;
#X obj -145 184 clip 0 1;
#X obj -113 211 moses 0.001;
#X obj 18 565 line 0 1;
#X obj -20 376 t f f;
#X obj 9 720 spigot;
#X obj 228 693 delay 0;
#X obj -49 150 inlet;
#X text -8 150 att;
#X obj 22 153 inlet;
#X text 63 153 dec;
#X obj 93 150 inlet;
#X text 134 152 sus;
#X obj 170 152 inlet;
#X text 211 152 rel;
#X obj -95 781 outlet;
#X obj -3 199 t b f;
#X connect 0 0 14 0;
#X connect 1 0 16 0;
#X connect 2 0 4 0;
#X connect 3 0 16 0;
#X connect 4 0 3 0;
#X connect 5 0 7 0;
#X connect 6 0 18 0;
#X connect 7 1 19 0;
#X connect 8 0 9 0;
#X connect 9 0 6 0;
#X connect 10 0 8 0;
#X connect 11 0 13 0;
#X connect 12 0 13 0;
#X connect 13 0 16 0;
#X connect 14 0 15 0;
#X connect 14 0 18 1;
#X connect 15 0 12 0;
#X connect 15 1 2 0;
#X connect 15 1 17 0;
#X connect 16 0 5 0;
#X connect 16 0 28 0;
#X connect 17 0 3 0;
#X connect 17 1 5 1;
#X connect 17 1 1 0;
#X connect 18 0 16 0;
#X connect 19 0 6 0;
#X connect 20 0 2 1;
#X connect 20 0 29 0;
#X connect 22 0 10 0;
#X connect 22 0 8 1;
#X connect 24 0 10 0;
#X connect 24 0 8 0;
#X connect 26 0 11 0;
#X connect 29 0 2 0;
#X connect 29 1 2 1;
#X coords 0 0 1 1 120 160 0;
#X restore 309 569 pd adsr1;
#X text -294 199 pitch;
#X obj -82 816 *~;
#X obj -95 943 outlet~;
#X text -241 200 gate;
#X obj 310 611 line~;
#X msg 311 588 \$1 1.6;
#X obj -114 516 *;
#X obj -72 557 *;
#X obj -215 550 *;
#X obj -81 581 *;
#X obj -5 317 *;
#X obj -21 368 * 10000;
#X obj -19 345 *;
#X obj 30 338 *;
#X obj 29 387 * 10000;
#X obj 31 364 *;
#X obj 80 349 *;
#X obj 79 398 * 10000;
#X obj 81 375 *;
#N canvas 102 79 1108 856 adsr1 0;
#X obj -143 147 inlet;
#X msg 15 502 0;
#X obj 63 365 pack f f;
#X msg -148 457 0.78125 710.297;
#X msg 64 391 set \$1 \$2;
#X obj 125 589 >=;
#X msg 216 752 0.35 6066.77;
#X obj 157 632 moses 0.001;
#X obj 150 406 pack f f;
#X msg 151 436 set \$1 \$2;
#X msg 170 319 bang;
#X msg 313 372 set 0 \$1;
#X msg -135 357 bang;
#X msg -136 523 0 150.062;
#X obj -145 184 clip 0 1;
#X obj -113 211 moses 0.001;
#X obj 18 565 line 0 1;
#X obj -20 376 t f f;
#X obj 9 720 spigot;
#X obj 228 693 delay 0;
#X obj -49 150 inlet;
#X text -8 150 att;
#X obj 22 153 inlet;
#X text 63 153 dec;
#X obj 93 150 inlet;
#X text 134 152 sus;
#X obj 170 152 inlet;
#X text 211 152 rel;
#X obj -95 781 outlet;
#X obj -3 199 t b f;
#X connect 0 0 14 0;
#X connect 1 0 16 0;
#X connect 2 0 4 0;
#X connect 3 0 16 0;
#X connect 4 0 3 0;
#X connect 5 0 7 0;
#X connect 6 0 18 0;
#X connect 7 1 19 0;
#X connect 8 0 9 0;
#X connect 9 0 6 0;
#X connect 10 0 8 0;
#X connect 11 0 13 0;
#X connect 12 0 13 0;
#X connect 13 0 16 0;
#X connect 14 0 15 0;
#X connect 14 0 18 1;
#X connect 15 0 12 0;
#X connect 15 1 2 0;
#X connect 15 1 17 0;
#X connect 16 0 5 0;
#X connect 16 0 28 0;
#X connect 17 0 3 0;
#X connect 17 1 5 1;
#X connect 17 1 1 0;
#X connect 18 0 16 0;
#X connect 19 0 6 0;
#X connect 20 0 2 1;
#X connect 20 0 29 0;
#X connect 22 0 10 0;
#X connect 22 0 8 1;
#X connect 24 0 10 0;
#X connect 24 0 8 0;
#X connect 26 0 11 0;
#X connect 29 0 2 0;
#X connect 29 1 2 1;
#X coords 0 0 1 1 120 160 0;
#X restore 12 486 pd adsr1;
#X obj 13 528 line~;
#X msg 14 505 \$1 1.6;
#X obj -119 768 abs_fm_op1;
#X obj -146 693 *~;
#X obj -167 662 *~;
#X obj -209 587 abs_fm_op1;
#X obj -24 573 *~;
#X obj 291 637 *~;
#X obj 58 671 *;
#X obj -96 916 +~;
#X obj -74 886 *~;
#X obj -136 889 *~;
#X obj -129 834 * -1;
#X obj -129 858 + 1;
#X obj -259 315 / 128;
#X obj -260 346 *;
#X text -291 157 2op fm voice;
#X obj -73 210 inlet;
#X text -77 187 fb1 0..0.5;
#X obj -9 211 inlet;
#X obj -124 215 inlet;
#X text -126 198 ratio;
#X obj -190 214 inlet;
#X text -191 195 keytrack;
#X obj 102 202 inlet;
#X obj 42 274 unpack f f f f;
#X obj 169 200 inlet;
#X text 170 186 balance;
#X obj 227 201 inlet;
#X text 226 188 fm;
#X text 100 187 adsr1 list;
#X text -2 191 waveparams1 list;
#X obj 288 199 inlet;
#X obj 354 199 inlet;
#X obj 463 198 inlet;
#X text 284 176 fb2 0..0.5;
#X text 361 179 waveparams2 list;
#X text 461 183 adsr2 list;
#X obj 444 286 unpack f f f f;
#X obj -115 664 +~;
#X obj -117 623 *~;
#X connect 0 0 1 0;
#X connect 0 0 48 0;
#X connect 1 0 22 0;
#X connect 1 0 36 0;
#X connect 2 0 6 0;
#X connect 3 0 5 1;
#X connect 3 0 5 0;
#X connect 4 0 13 1;
#X connect 5 0 4 0;
#X connect 6 0 13 0;
#X connect 6 0 33 0;
#X connect 7 0 9 1;
#X connect 7 0 9 0;
#X connect 8 0 13 2;
#X connect 9 0 8 0;
#X connect 10 0 12 1;
#X connect 10 0 12 0;
#X connect 11 0 13 4;
#X connect 12 0 11 0;
#X connect 13 0 19 0;
#X connect 15 0 44 0;
#X connect 18 0 41 0;
#X connect 18 0 41 1;
#X connect 19 0 18 0;
#X connect 20 0 39 3;
#X connect 21 0 23 1;
#X connect 21 0 23 0;
#X connect 22 0 39 0;
#X connect 23 0 73 1;
#X connect 23 0 74 1;
#X connect 24 0 26 1;
#X connect 24 0 26 0;
#X connect 25 0 33 1;
#X connect 26 0 25 0;
#X connect 27 0 29 1;
#X connect 27 0 29 0;
#X connect 28 0 33 2;
#X connect 29 0 28 0;
#X connect 30 0 32 1;
#X connect 30 0 32 0;
#X connect 31 0 33 4;
#X connect 32 0 31 0;
#X connect 33 0 35 0;
#X connect 34 0 40 0;
#X connect 34 0 40 1;
#X connect 35 0 34 0;
#X connect 36 0 15 0;
#X connect 37 0 36 1;
#X connect 38 0 37 0;
#X connect 38 0 45 0;
#X connect 39 0 38 0;
#X connect 40 0 38 1;
#X connect 41 0 15 1;
#X connect 42 0 36 3;
#X connect 43 0 16 0;
#X connect 44 0 43 1;
#X connect 45 0 43 0;
#X connect 46 0 47 0;
#X connect 47 0 45 1;
#X connect 48 0 49 0;
#X connect 49 0 74 0;
#X connect 51 0 20 1;
#X connect 51 0 20 0;
#X connect 53 0 39 2;
#X connect 54 0 22 1;
#X connect 56 0 49 1;
#X connect 58 0 59 0;
#X connect 59 0 24 1;
#X connect 59 0 24 0;
#X connect 59 1 27 1;
#X connect 59 1 27 0;
#X connect 59 2 33 3;
#X connect 59 3 30 1;
#X connect 59 3 30 0;
#X connect 60 0 44 1;
#X connect 60 0 46 0;
#X connect 62 0 21 1;
#X connect 62 0 21 0;
#X connect 66 0 42 1;
#X connect 66 0 42 0;
#X connect 67 0 36 2;
#X connect 68 0 72 0;
#X connect 72 0 3 1;
#X connect 72 0 3 0;
#X connect 72 1 7 1;
#X connect 72 1 7 0;
#X connect 72 2 13 3;
#X connect 72 3 10 1;
#X connect 72 3 10 0;
#X connect 73 0 37 1;
#X connect 74 0 73 0;
#X coords 0 851 1 850 200 120 0;
#X restore -345 844 pd two_ops_1_synth_voice;
#X obj 290 360 pack f f f f;
#X obj 284 338 float;
#X obj 305 284 t b f;
#X obj 347 296 t b f;
#X obj 389 308 t b f;
#N canvas 243 82 1172 851 two_ops_1_synth_voice 0;
#X obj -291 214 inlet;
#X obj -345 450 mtof;
#X obj -244 213 inlet;
#X obj 295 440 *;
#X obj 294 489 * 10000;
#X obj 296 466 *;
#X obj -244 236 clip 0 1;
#X obj 355 445 *;
#X obj 354 494 * 10000;
#X obj 356 471 *;
#X obj 403 467 *;
#X obj 402 516 * 10000;
#X obj 404 493 *;
#N canvas 100 80 1108 856 adsr1 0;
#X obj -143 147 inlet;
#X msg 15 502 0;
#X obj 63 365 pack f f;
#X msg -148 457 0.78125 1;
#X msg 64 391 set \$1 \$2;
#X obj 125 589 >=;
#X msg 216 752 0.6625 625.25;
#X obj 157 632 moses 0.001;
#X obj 150 406 pack f f;
#X msg 151 436 set \$1 \$2;
#X msg 170 319 bang;
#X msg 313 372 set 0 \$1;
#X msg -135 357 bang;
#X msg -136 523 0 530.842;
#X obj -145 184 clip 0 1;
#X obj -113 211 moses 0.001;
#X obj 18 565 line 0 1;
#X obj -20 376 t f f;
#X obj 9 720 spigot;
#X obj 228 693 delay 0;
#X obj -49 150 inlet;
#X text -8 150 att;
#X obj 22 153 inlet;
#X text 63 153 dec;
#X obj 93 150 inlet;
#X text 134 152 sus;
#X obj 170 152 inlet;
#X text 211 152 rel;
#X obj -95 781 outlet;
#X obj -3 199 t b f;
#X connect 0 0 14 0;
#X connect 1 0 16 0;
#X connect 2 0 4 0;
#X connect 3 0 16 0;
#X connect 4 0 3 0;
#X connect 5 0 7 0;
#X connect 6 0 18 0;
#X connect 7 1 19 0;
#X connect 8 0 9 0;
#X connect 9 0 6 0;
#X connect 10 0 8 0;
#X connect 11 0 13 0;
#X connect 12 0 13 0;
#X connect 13 0 16 0;
#X connect 14 0 15 0;
#X connect 14 0 18 1;
#X connect 15 0 12 0;
#X connect 15 1 2 0;
#X connect 15 1 17 0;
#X connect 16 0 5 0;
#X connect 16 0 28 0;
#X connect 17 0 3 0;
#X connect 17 1 5 1;
#X connect 17 1 1 0;
#X connect 18 0 16 0;
#X connect 19 0 6 0;
#X connect 20 0 2 1;
#X connect 20 0 29 0;
#X connect 22 0 10 0;
#X connect 22 0 8 1;
#X connect 24 0 10 0;
#X connect 24 0 8 0;
#X connect 26 0 11 0;
#X connect 29 0 2 0;
#X connect 29 1 2 1;
#X coords 0 0 1 1 120 160 0;
#X restore 309 569 pd adsr1;
#X text -294 199 pitch;
#X obj -82 816 *~;
#X obj -95 943 outlet~;
#X text -241 200 gate;
#X obj 310 611 line~;
#X msg 311 588 \$1 1.6;
#X obj -114 516 *;
#X obj -72 557 *;
#X obj -215 550 *;
#X obj -81 581 *;
#X obj -5 317 *;
#X obj -21 368 * 10000;
#X obj -19 345 *;
#X obj 30 338 *;
#X obj 29 387 * 10000;
#X obj 31 364 *;
#X obj 80 349 *;
#X obj 79 398 * 10000;
#X obj 81 375 *;
#N canvas 102 79 1108 856 adsr1 0;
#X obj -143 147 inlet;
#X msg 15 502 0;
#X obj 63 365 pack f f;
#X msg -148 457 0.78125 710.297;
#X msg 64 391 set \$1 \$2;
#X obj 125 589 >=;
#X msg 216 752 0.35 6066.77;
#X obj 157 632 moses 0.001;
#X obj 150 406 pack f f;
#X msg 151 436 set \$1 \$2;
#X msg 170 319 bang;
#X msg 313 372 set 0 \$1;
#X msg -135 357 bang;
#X msg -136 523 0 150.062;
#X obj -145 184 clip 0 1;
#X obj -113 211 moses 0.001;
#X obj 18 565 line 0 1;
#X obj -20 376 t f f;
#X obj 9 720 spigot;
#X obj 228 693 delay 0;
#X obj -49 150 inlet;
#X text -8 150 att;
#X obj 22 153 inlet;
#X text 63 153 dec;
#X obj 93 150 inlet;
#X text 134 152 sus;
#X obj 170 152 inlet;
#X text 211 152 rel;
#X obj -95 781 outlet;
#X obj -3 199 t b f;
#X connect 0 0 14 0;
#X connect 1 0 16 0;
#X connect 2 0 4 0;
#X connect 3 0 16 0;
#X connect 4 0 3 0;
#X connect 5 0 7 0;
#X connect 6 0 18 0;
#X connect 7 1 19 0;
#X connect 8 0 9 0;
#X connect 9 0 6 0;
#X connect 10 0 8 0;
#X connect 11 0 13 0;
#X connect 12 0 13 0;
#X connect 13 0 16 0;
#X connect 14 0 15 0;
#X connect 14 0 18 1;
#X connect 15 0 12 0;
#X connect 15 1 2 0;
#X connect 15 1 17 0;
#X connect 16 0 5 0;
#X connect 16 0 28 0;
#X connect 17 0 3 0;
#X connect 17 1 5 1;
#X connect 17 1 1 0;
#X connect 18 0 16 0;
#X connect 19 0 6 0;
#X connect 20 0 2 1;
#X connect 20 0 29 0;
#X connect 22 0 10 0;
#X connect 22 0 8 1;
#X connect 24 0 10 0;
#X connect 24 0 8 0;
#X connect 26 0 11 0;
#X connect 29 0 2 0;
#X connect 29 1 2 1;
#X coords 0 0 1 1 120 160 0;
#X restore 12 486 pd adsr1;
#X obj 13 528 line~;
#X msg 14 505 \$1 1.6;
#X obj -119 768 abs_fm_op1;
#X obj -146 693 *~;
#X obj -167 662 *~;
#X obj -209 587 abs_fm_op1;
#X obj -24 573 *~;
#X obj 291 637 *~;
#X obj 58 671 *;
#X obj -96 916 +~;
#X obj -74 886 *~;
#X obj -136 889 *~;
#X obj -129 834 * -1;
#X obj -129 858 + 1;
#X obj -259 315 / 128;
#X obj -260 346 *;
#X text -291 157 2op fm voice;
#X obj -73 210 inlet;
#X text -77 187 fb1 0..0.5;
#X obj -9 211 inlet;
#X obj -124 215 inlet;
#X text -126 198 ratio;
#X obj -190 214 inlet;
#X text -191 195 keytrack;
#X obj 102 202 inlet;
#X obj 42 274 unpack f f f f;
#X obj 169 200 inlet;
#X text 170 186 balance;
#X obj 227 201 inlet;
#X text 226 188 fm;
#X text 100 187 adsr1 list;
#X text -2 191 waveparams1 list;
#X obj 288 199 inlet;
#X obj 354 199 inlet;
#X obj 463 198 inlet;
#X text 284 176 fb2 0..0.5;
#X text 361 179 waveparams2 list;
#X text 461 183 adsr2 list;
#X obj 444 286 unpack f f f f;
#X obj -115 664 +~;
#X obj -117 623 *~;
#X connect 0 0 1 0;
#X connect 0 0 48 0;
#X connect 1 0 22 0;
#X connect 1 0 36 0;
#X connect 2 0 6 0;
#X connect 3 0 5 1;
#X connect 3 0 5 0;
#X connect 4 0 13 1;
#X connect 5 0 4 0;
#X connect 6 0 13 0;
#X connect 6 0 33 0;
#X connect 7 0 9 1;
#X connect 7 0 9 0;
#X connect 8 0 13 2;
#X connect 9 0 8 0;
#X connect 10 0 12 1;
#X connect 10 0 12 0;
#X connect 11 0 13 4;
#X connect 12 0 11 0;
#X connect 13 0 19 0;
#X connect 15 0 44 0;
#X connect 18 0 41 0;
#X connect 18 0 41 1;
#X connect 19 0 18 0;
#X connect 20 0 39 3;
#X connect 21 0 23 1;
#X connect 21 0 23 0;
#X connect 22 0 39 0;
#X connect 23 0 73 1;
#X connect 23 0 74 1;
#X connect 24 0 26 1;
#X connect 24 0 26 0;
#X connect 25 0 33 1;
#X connect 26 0 25 0;
#X connect 27 0 29 1;
#X connect 27 0 29 0;
#X connect 28 0 33 2;
#X connect 29 0 28 0;
#X connect 30 0 32 1;
#X connect 30 0 32 0;
#X connect 31 0 33 4;
#X connect 32 0 31 0;
#X connect 33 0 35 0;
#X connect 34 0 40 0;
#X connect 34 0 40 1;
#X connect 35 0 34 0;
#X connect 36 0 15 0;
#X connect 37 0 36 1;
#X connect 38 0 37 0;
#X connect 38 0 45 0;
#X connect 39 0 38 0;
#X connect 40 0 38 1;
#X connect 41 0 15 1;
#X connect 42 0 36 3;
#X connect 43 0 16 0;
#X connect 44 0 43 1;
#X connect 45 0 43 0;
#X connect 46 0 47 0;
#X connect 47 0 45 1;
#X connect 48 0 49 0;
#X connect 49 0 74 0;
#X connect 51 0 20 1;
#X connect 51 0 20 0;
#X connect 53 0 39 2;
#X connect 54 0 22 1;
#X connect 56 0 49 1;
#X connect 58 0 59 0;
#X connect 59 0 24 1;
#X connect 59 0 24 0;
#X connect 59 1 27 1;
#X connect 59 1 27 0;
#X connect 59 2 33 3;
#X connect 59 3 30 1;
#X connect 59 3 30 0;
#X connect 60 0 44 1;
#X connect 60 0 46 0;
#X connect 62 0 21 1;
#X connect 62 0 21 0;
#X connect 66 0 42 1;
#X connect 66 0 42 0;
#X connect 67 0 36 2;
#X connect 68 0 72 0;
#X connect 72 0 3 1;
#X connect 72 0 3 0;
#X connect 72 1 7 1;
#X connect 72 1 7 0;
#X connect 72 2 13 3;
#X connect 72 3 10 1;
#X connect 72 3 10 0;
#X connect 73 0 37 1;
#X connect 74 0 73 0;
#X coords 0 851 1 850 200 120 0;
#X restore -185 846 pd two_ops_1_synth_voice;
#X obj -325 109 poly 4 1;
#N canvas 243 82 1172 851 two_ops_1_synth_voice 0;
#X obj -291 214 inlet;
#X obj -345 450 mtof;
#X obj -244 213 inlet;
#X obj 295 440 *;
#X obj 294 489 * 10000;
#X obj 296 466 *;
#X obj -244 236 clip 0 1;
#X obj 355 445 *;
#X obj 354 494 * 10000;
#X obj 356 471 *;
#X obj 403 467 *;
#X obj 402 516 * 10000;
#X obj 404 493 *;
#N canvas 100 80 1108 856 adsr1 0;
#X obj -143 147 inlet;
#X msg 15 502 0;
#X obj 63 365 pack f f;
#X msg -148 457 0 1;
#X msg 64 391 set \$1 \$2;
#X obj 125 589 >=;
#X msg 216 752 0.6625 625.25;
#X obj 157 632 moses 0.001;
#X obj 150 406 pack f f;
#X msg 151 436 set \$1 \$2;
#X msg 170 319 bang;
#X msg 313 372 set 0 \$1;
#X msg -135 357 bang;
#X msg -136 523 0 530.842;
#X obj -145 184 clip 0 1;
#X obj -113 211 moses 0.001;
#X obj 18 565 line 0 1;
#X obj -20 376 t f f;
#X obj 9 720 spigot;
#X obj 228 693 delay 0;
#X obj -49 150 inlet;
#X text -8 150 att;
#X obj 22 153 inlet;
#X text 63 153 dec;
#X obj 93 150 inlet;
#X text 134 152 sus;
#X obj 170 152 inlet;
#X text 211 152 rel;
#X obj -95 781 outlet;
#X obj -3 199 t b f;
#X connect 0 0 14 0;
#X connect 1 0 16 0;
#X connect 2 0 4 0;
#X connect 3 0 16 0;
#X connect 4 0 3 0;
#X connect 5 0 7 0;
#X connect 6 0 18 0;
#X connect 7 1 19 0;
#X connect 8 0 9 0;
#X connect 9 0 6 0;
#X connect 10 0 8 0;
#X connect 11 0 13 0;
#X connect 12 0 13 0;
#X connect 13 0 16 0;
#X connect 14 0 15 0;
#X connect 14 0 18 1;
#X connect 15 0 12 0;
#X connect 15 1 2 0;
#X connect 15 1 17 0;
#X connect 16 0 5 0;
#X connect 16 0 28 0;
#X connect 17 0 3 0;
#X connect 17 1 5 1;
#X connect 17 1 1 0;
#X connect 18 0 16 0;
#X connect 19 0 6 0;
#X connect 20 0 2 1;
#X connect 20 0 29 0;
#X connect 22 0 10 0;
#X connect 22 0 8 1;
#X connect 24 0 10 0;
#X connect 24 0 8 0;
#X connect 26 0 11 0;
#X connect 29 0 2 0;
#X connect 29 1 2 1;
#X coords 0 0 1 1 120 160 0;
#X restore 309 569 pd adsr1;
#X text -294 199 pitch;
#X obj -82 816 *~;
#X obj -95 943 outlet~;
#X text -241 200 gate;
#X obj 310 611 line~;
#X msg 311 588 \$1 1.6;
#X obj -114 516 *;
#X obj -72 557 *;
#X obj -215 550 *;
#X obj -81 581 *;
#X obj -5 317 *;
#X obj -21 368 * 10000;
#X obj -19 345 *;
#X obj 30 338 *;
#X obj 29 387 * 10000;
#X obj 31 364 *;
#X obj 80 349 *;
#X obj 79 398 * 10000;
#X obj 81 375 *;
#N canvas 102 79 1108 856 adsr1 0;
#X obj -143 147 inlet;
#X msg 15 502 0;
#X obj 63 365 pack f f;
#X msg -148 457 0 710.297;
#X msg 64 391 set \$1 \$2;
#X obj 125 589 >=;
#X msg 216 752 0.35 6066.77;
#X obj 157 632 moses 0.001;
#X obj 150 406 pack f f;
#X msg 151 436 set \$1 \$2;
#X msg 170 319 bang;
#X msg 313 372 set 0 \$1;
#X msg -135 357 bang;
#X msg -136 523 0 150.062;
#X obj -145 184 clip 0 1;
#X obj -113 211 moses 0.001;
#X obj 18 565 line 0 1;
#X obj -20 376 t f f;
#X obj 9 720 spigot;
#X obj 228 693 delay 0;
#X obj -49 150 inlet;
#X text -8 150 att;
#X obj 22 153 inlet;
#X text 63 153 dec;
#X obj 93 150 inlet;
#X text 134 152 sus;
#X obj 170 152 inlet;
#X text 211 152 rel;
#X obj -95 781 outlet;
#X obj -3 199 t b f;
#X connect 0 0 14 0;
#X connect 1 0 16 0;
#X connect 2 0 4 0;
#X connect 3 0 16 0;
#X connect 4 0 3 0;
#X connect 5 0 7 0;
#X connect 6 0 18 0;
#X connect 7 1 19 0;
#X connect 8 0 9 0;
#X connect 9 0 6 0;
#X connect 10 0 8 0;
#X connect 11 0 13 0;
#X connect 12 0 13 0;
#X connect 13 0 16 0;
#X connect 14 0 15 0;
#X connect 14 0 18 1;
#X connect 15 0 12 0;
#X connect 15 1 2 0;
#X connect 15 1 17 0;
#X connect 16 0 5 0;
#X connect 16 0 28 0;
#X connect 17 0 3 0;
#X connect 17 1 5 1;
#X connect 17 1 1 0;
#X connect 18 0 16 0;
#X connect 19 0 6 0;
#X connect 20 0 2 1;
#X connect 20 0 29 0;
#X connect 22 0 10 0;
#X connect 22 0 8 1;
#X connect 24 0 10 0;
#X connect 24 0 8 0;
#X connect 26 0 11 0;
#X connect 29 0 2 0;
#X connect 29 1 2 1;
#X coords 0 0 1 1 120 160 0;
#X restore 12 486 pd adsr1;
#X obj 13 528 line~;
#X msg 14 505 \$1 1.6;
#X obj -119 768 abs_fm_op1;
#X obj -146 693 *~;
#X obj -167 662 *~;
#X obj -209 587 abs_fm_op1;
#X obj -24 573 *~;
#X obj 291 637 *~;
#X obj 58 671 *;
#X obj -96 916 +~;
#X obj -74 886 *~;
#X obj -136 889 *~;
#X obj -129 834 * -1;
#X obj -129 858 + 1;
#X obj -259 315 / 128;
#X obj -260 346 *;
#X text -291 157 2op fm voice;
#X obj -73 210 inlet;
#X text -77 187 fb1 0..0.5;
#X obj -9 211 inlet;
#X obj -124 215 inlet;
#X text -126 198 ratio;
#X obj -190 214 inlet;
#X text -191 195 keytrack;
#X obj 102 202 inlet;
#X obj 42 274 unpack f f f f;
#X obj 169 200 inlet;
#X text 170 186 balance;
#X obj 227 201 inlet;
#X text 226 188 fm;
#X text 100 187 adsr1 list;
#X text -2 191 waveparams1 list;
#X obj 288 199 inlet;
#X obj 354 199 inlet;
#X obj 463 198 inlet;
#X text 284 176 fb2 0..0.5;
#X text 361 179 waveparams2 list;
#X text 461 183 adsr2 list;
#X obj 444 286 unpack f f f f;
#X obj -115 664 +~;
#X obj -117 623 *~;
#X connect 0 0 1 0;
#X connect 0 0 48 0;
#X connect 1 0 22 0;
#X connect 1 0 36 0;
#X connect 2 0 6 0;
#X connect 3 0 5 1;
#X connect 3 0 5 0;
#X connect 4 0 13 1;
#X connect 5 0 4 0;
#X connect 6 0 13 0;
#X connect 6 0 33 0;
#X connect 7 0 9 1;
#X connect 7 0 9 0;
#X connect 8 0 13 2;
#X connect 9 0 8 0;
#X connect 10 0 12 1;
#X connect 10 0 12 0;
#X connect 11 0 13 4;
#X connect 12 0 11 0;
#X connect 13 0 19 0;
#X connect 15 0 44 0;
#X connect 18 0 41 0;
#X connect 18 0 41 1;
#X connect 19 0 18 0;
#X connect 20 0 39 3;
#X connect 21 0 23 1;
#X connect 21 0 23 0;
#X connect 22 0 39 0;
#X connect 23 0 73 1;
#X connect 23 0 74 1;
#X connect 24 0 26 1;
#X connect 24 0 26 0;
#X connect 25 0 33 1;
#X connect 26 0 25 0;
#X connect 27 0 29 1;
#X connect 27 0 29 0;
#X connect 28 0 33 2;
#X connect 29 0 28 0;
#X connect 30 0 32 1;
#X connect 30 0 32 0;
#X connect 31 0 33 4;
#X connect 32 0 31 0;
#X connect 33 0 35 0;
#X connect 34 0 40 0;
#X connect 34 0 40 1;
#X connect 35 0 34 0;
#X connect 36 0 15 0;
#X connect 37 0 36 1;
#X connect 38 0 37 0;
#X connect 38 0 45 0;
#X connect 39 0 38 0;
#X connect 40 0 38 1;
#X connect 41 0 15 1;
#X connect 42 0 36 3;
#X connect 43 0 16 0;
#X connect 44 0 43 1;
#X connect 45 0 43 0;
#X connect 46 0 47 0;
#X connect 47 0 45 1;
#X connect 48 0 49 0;
#X connect 49 0 74 0;
#X connect 51 0 20 1;
#X connect 51 0 20 0;
#X connect 53 0 39 2;
#X connect 54 0 22 1;
#X connect 56 0 49 1;
#X connect 58 0 59 0;
#X connect 59 0 24 1;
#X connect 59 0 24 0;
#X connect 59 1 27 1;
#X connect 59 1 27 0;
#X connect 59 2 33 3;
#X connect 59 3 30 1;
#X connect 59 3 30 0;
#X connect 60 0 44 1;
#X connect 60 0 46 0;
#X connect 62 0 21 1;
#X connect 62 0 21 0;
#X connect 66 0 42 1;
#X connect 66 0 42 0;
#X connect 67 0 36 2;
#X connect 68 0 72 0;
#X connect 72 0 3 1;
#X connect 72 0 3 0;
#X connect 72 1 7 1;
#X connect 72 1 7 0;
#X connect 72 2 13 3;
#X connect 72 3 10 1;
#X connect 72 3 10 0;
#X connect 73 0 37 1;
#X connect 74 0 73 0;
#X coords 0 851 1 850 200 120 0;
#X restore -26 844 pd two_ops_1_synth_voice;
#N canvas 241 83 1172 851 two_ops_1_synth_voice 0;
#X obj -291 214 inlet;
#X obj -345 450 mtof;
#X obj -244 213 inlet;
#X obj 295 440 *;
#X obj 294 489 * 10000;
#X obj 296 466 *;
#X obj -244 236 clip 0 1;
#X obj 355 445 *;
#X obj 354 494 * 10000;
#X obj 356 471 *;
#X obj 403 467 *;
#X obj 402 516 * 10000;
#X obj 404 493 *;
#N canvas 100 80 1108 856 adsr1 0;
#X obj -143 147 inlet;
#X msg 15 502 0;
#X obj 63 365 pack f f;
#X msg -148 457 0 1;
#X msg 64 391 set \$1 \$2;
#X obj 125 589 >=;
#X msg 216 752 0.6625 625.25;
#X obj 157 632 moses 0.001;
#X obj 150 406 pack f f;
#X msg 151 436 set \$1 \$2;
#X msg 170 319 bang;
#X msg 313 372 set 0 \$1;
#X msg -135 357 bang;
#X msg -136 523 0 530.842;
#X obj -145 184 clip 0 1;
#X obj -113 211 moses 0.001;
#X obj 18 565 line 0 1;
#X obj -20 376 t f f;
#X obj 9 720 spigot;
#X obj 228 693 delay 0;
#X obj -49 150 inlet;
#X text -8 150 att;
#X obj 22 153 inlet;
#X text 63 153 dec;
#X obj 93 150 inlet;
#X text 134 152 sus;
#X obj 170 152 inlet;
#X text 211 152 rel;
#X obj -95 781 outlet;
#X obj -3 199 t b f;
#X connect 0 0 14 0;
#X connect 1 0 16 0;
#X connect 2 0 4 0;
#X connect 3 0 16 0;
#X connect 4 0 3 0;
#X connect 5 0 7 0;
#X connect 6 0 18 0;
#X connect 7 1 19 0;
#X connect 8 0 9 0;
#X connect 9 0 6 0;
#X connect 10 0 8 0;
#X connect 11 0 13 0;
#X connect 12 0 13 0;
#X connect 13 0 16 0;
#X connect 14 0 15 0;
#X connect 14 0 18 1;
#X connect 15 0 12 0;
#X connect 15 1 2 0;
#X connect 15 1 17 0;
#X connect 16 0 5 0;
#X connect 16 0 28 0;
#X connect 17 0 3 0;
#X connect 17 1 5 1;
#X connect 17 1 1 0;
#X connect 18 0 16 0;
#X connect 19 0 6 0;
#X connect 20 0 2 1;
#X connect 20 0 29 0;
#X connect 22 0 10 0;
#X connect 22 0 8 1;
#X connect 24 0 10 0;
#X connect 24 0 8 0;
#X connect 26 0 11 0;
#X connect 29 0 2 0;
#X connect 29 1 2 1;
#X coords 0 0 1 1 120 160 0;
#X restore 309 569 pd adsr1;
#X text -294 199 pitch;
#X obj -82 816 *~;
#X obj -95 943 outlet~;
#X text -241 200 gate;
#X obj 310 611 line~;
#X msg 311 588 \$1 1.6;
#X obj -114 516 *;
#X obj -72 557 *;
#X obj -215 550 *;
#X obj -81 581 *;
#X obj -5 317 *;
#X obj -21 368 * 10000;
#X obj -19 345 *;
#X obj 30 338 *;
#X obj 29 387 * 10000;
#X obj 31 364 *;
#X obj 80 349 *;
#X obj 79 398 * 10000;
#X obj 81 375 *;
#N canvas 102 79 1108 856 adsr1 0;
#X obj -143 147 inlet;
#X msg 15 502 0;
#X obj 63 365 pack f f;
#X msg -148 457 0 710.297;
#X msg 64 391 set \$1 \$2;
#X obj 125 589 >=;
#X msg 216 752 0.35 6066.77;
#X obj 157 632 moses 0.001;
#X obj 150 406 pack f f;
#X msg 151 436 set \$1 \$2;
#X msg 170 319 bang;
#X msg 313 372 set 0 \$1;
#X msg -135 357 bang;
#X msg -136 523 0 150.062;
#X obj -145 184 clip 0 1;
#X obj -113 211 moses 0.001;
#X obj 18 565 line 0 1;
#X obj -20 376 t f f;
#X obj 9 720 spigot;
#X obj 228 693 delay 0;
#X obj -49 150 inlet;
#X text -8 150 att;
#X obj 22 153 inlet;
#X text 63 153 dec;
#X obj 93 150 inlet;
#X text 134 152 sus;
#X obj 170 152 inlet;
#X text 211 152 rel;
#X obj -95 781 outlet;
#X obj -3 199 t b f;
#X connect 0 0 14 0;
#X connect 1 0 16 0;
#X connect 2 0 4 0;
#X connect 3 0 16 0;
#X connect 4 0 3 0;
#X connect 5 0 7 0;
#X connect 6 0 18 0;
#X connect 7 1 19 0;
#X connect 8 0 9 0;
#X connect 9 0 6 0;
#X connect 10 0 8 0;
#X connect 11 0 13 0;
#X connect 12 0 13 0;
#X connect 13 0 16 0;
#X connect 14 0 15 0;
#X connect 14 0 18 1;
#X connect 15 0 12 0;
#X connect 15 1 2 0;
#X connect 15 1 17 0;
#X connect 16 0 5 0;
#X connect 16 0 28 0;
#X connect 17 0 3 0;
#X connect 17 1 5 1;
#X connect 17 1 1 0;
#X connect 18 0 16 0;
#X connect 19 0 6 0;
#X connect 20 0 2 1;
#X connect 20 0 29 0;
#X connect 22 0 10 0;
#X connect 22 0 8 1;
#X connect 24 0 10 0;
#X connect 24 0 8 0;
#X connect 26 0 11 0;
#X connect 29 0 2 0;
#X connect 29 1 2 1;
#X coords 0 0 1 1 120 160 0;
#X restore 12 486 pd adsr1;
#X obj 13 528 line~;
#X msg 14 505 \$1 1.6;
#X obj -119 768 abs_fm_op1;
#X obj -146 693 *~;
#X obj -167 662 *~;
#X obj -209 587 abs_fm_op1;
#X obj -24 573 *~;
#X obj 291 637 *~;
#X obj 58 671 *;
#X obj -96 916 +~;
#X obj -74 886 *~;
#X obj -136 889 *~;
#X obj -129 834 * -1;
#X obj -129 858 + 1;
#X obj -259 315 / 128;
#X obj -260 346 *;
#X text -291 157 2op fm voice;
#X obj -73 210 inlet;
#X text -77 187 fb1 0..0.5;
#X obj -9 211 inlet;
#X obj -124 215 inlet;
#X text -126 198 ratio;
#X obj -190 214 inlet;
#X text -191 195 keytrack;
#X obj 102 202 inlet;
#X obj 42 274 unpack f f f f;
#X obj 169 200 inlet;
#X text 170 186 balance;
#X obj 227 201 inlet;
#X text 226 188 fm;
#X text 100 187 adsr1 list;
#X text -2 191 waveparams1 list;
#X obj 288 199 inlet;
#X obj 354 199 inlet;
#X obj 463 198 inlet;
#X text 284 176 fb2 0..0.5;
#X text 361 179 waveparams2 list;
#X text 461 183 adsr2 list;
#X obj 444 286 unpack f f f f;
#X obj -115 664 +~;
#X obj -117 623 *~;
#X connect 0 0 1 0;
#X connect 0 0 48 0;
#X connect 1 0 22 0;
#X connect 1 0 36 0;
#X connect 2 0 6 0;
#X connect 3 0 5 1;
#X connect 3 0 5 0;
#X connect 4 0 13 1;
#X connect 5 0 4 0;
#X connect 6 0 13 0;
#X connect 6 0 33 0;
#X connect 7 0 9 1;
#X connect 7 0 9 0;
#X connect 8 0 13 2;
#X connect 9 0 8 0;
#X connect 10 0 12 1;
#X connect 10 0 12 0;
#X connect 11 0 13 4;
#X connect 12 0 11 0;
#X connect 13 0 19 0;
#X connect 15 0 44 0;
#X connect 18 0 41 0;
#X connect 18 0 41 1;
#X connect 19 0 18 0;
#X connect 20 0 39 3;
#X connect 21 0 23 1;
#X connect 21 0 23 0;
#X connect 22 0 39 0;
#X connect 23 0 73 1;
#X connect 23 0 74 1;
#X connect 24 0 26 1;
#X connect 24 0 26 0;
#X connect 25 0 33 1;
#X connect 26 0 25 0;
#X connect 27 0 29 1;
#X connect 27 0 29 0;
#X connect 28 0 33 2;
#X connect 29 0 28 0;
#X connect 30 0 32 1;
#X connect 30 0 32 0;
#X connect 31 0 33 4;
#X connect 32 0 31 0;
#X connect 33 0 35 0;
#X connect 34 0 40 0;
#X connect 34 0 40 1;
#X connect 35 0 34 0;
#X connect 36 0 15 0;
#X connect 37 0 36 1;
#X connect 38 0 37 0;
#X connect 38 0 45 0;
#X connect 39 0 38 0;
#X connect 40 0 38 1;
#X connect 41 0 15 1;
#X connect 42 0 36 3;
#X connect 43 0 16 0;
#X connect 44 0 43 1;
#X connect 45 0 43 0;
#X connect 46 0 47 0;
#X connect 47 0 45 1;
#X connect 48 0 49 0;
#X connect 49 0 74 0;
#X connect 51 0 20 1;
#X connect 51 0 20 0;
#X connect 53 0 39 2;
#X connect 54 0 22 1;
#X connect 56 0 49 1;
#X connect 58 0 59 0;
#X connect 59 0 24 1;
#X connect 59 0 24 0;
#X connect 59 1 27 1;
#X connect 59 1 27 0;
#X connect 59 2 33 3;
#X connect 59 3 30 1;
#X connect 59 3 30 0;
#X connect 60 0 44 1;
#X connect 60 0 46 0;
#X connect 62 0 21 1;
#X connect 62 0 21 0;
#X connect 66 0 42 1;
#X connect 66 0 42 0;
#X connect 67 0 36 2;
#X connect 68 0 72 0;
#X connect 72 0 3 1;
#X connect 72 0 3 0;
#X connect 72 1 7 1;
#X connect 72 1 7 0;
#X connect 72 2 13 3;
#X connect 72 3 10 1;
#X connect 72 3 10 0;
#X connect 73 0 37 1;
#X connect 74 0 73 0;
#X coords 0 851 1 850 200 120 0;
#X restore 134 846 pd two_ops_1_synth_voice;
#X obj 378 406 float;
#X text -408 -13 pitch;
#X text -366 -14 gate;
#X text -299 -10 bend;
#X obj -249 5 inlet;
#X text -244 -12 mod;
#X obj 104 -2 inlet;
#X text 102 -18 preset;
#X obj 401 546 outlet;
#X obj 301 202 bng 15 250 50 0 empty empty v 5 8 0 10 -262144 -1 -1
;
#X text 398 564 preset;
#X obj 297 113 vsl 10 81 -1 1 0 1 empty empty m1 1 4 0 8 -262144 -1
-1 6100 1;
#X obj 99 36 unpack f f f f f f f f f f f f f f f f f f;
#X obj 308 113 vsl 10 81 -0.5 0.5 0 1 empty empty m2 1 4 0 8 -262144
-1 -1 4400 1;
#X obj 398 442 pack f f f f f f f f f f f f f f f f f f;
#X msg 400 477 set \$1 \$2 \$3 \$4 \$5 \$6 \$7 \$8 \$9 \$10 \$11 \$12
\$13 \$14 \$15 \$16 \$17 \$18;
#X obj -244 69 t b f;
#X obj -267 479 *;
#X obj -280 500 +;
#X obj -172 71 *;
#X obj -176 98 *;
#X obj -247 42 / 128;
#X obj -95 68 *;
#X obj -99 95 *;
#X obj -209 419 *;
#X obj -238 471 +;
#X obj -238 499 clip 0 0.5;
#X obj -169 469 +;
#X obj -169 497 clip 0 0.5;
#X text -300 449 fm mod;
#X text -214 448 fb mod;
#N canvas 241 83 1172 851 two_ops_1_synth_voice 0;
#X obj -291 214 inlet;
#X obj -345 450 mtof;
#X obj -244 213 inlet;
#X obj 295 440 *;
#X obj 294 489 * 10000;
#X obj 296 466 *;
#X obj -244 236 clip 0 1;
#X obj 355 445 *;
#X obj 354 494 * 10000;
#X obj 356 471 *;
#X obj 403 467 *;
#X obj 402 516 * 10000;
#X obj 404 493 *;
#N canvas 100 80 1108 856 adsr1 0;
#X obj -143 147 inlet;
#X msg 15 502 0;
#X obj 63 365 pack f f;
#X msg -148 457 0.78125 1;
#X msg 64 391 set \$1 \$2;
#X obj 125 589 >=;
#X msg 216 752 0.6625 625.25;
#X obj 157 632 moses 0.001;
#X obj 150 406 pack f f;
#X msg 151 436 set \$1 \$2;
#X msg 170 319 bang;
#X msg 313 372 set 0 \$1;
#X msg -135 357 bang;
#X msg -136 523 0 530.842;
#X obj -145 184 clip 0 1;
#X obj -113 211 moses 0.001;
#X obj 18 565 line 0 1;
#X obj -20 376 t f f;
#X obj 9 720 spigot;
#X obj 228 693 delay 0;
#X obj -49 150 inlet;
#X text -8 150 att;
#X obj 22 153 inlet;
#X text 63 153 dec;
#X obj 93 150 inlet;
#X text 134 152 sus;
#X obj 170 152 inlet;
#X text 211 152 rel;
#X obj -95 781 outlet;
#X obj -3 199 t b f;
#X connect 0 0 14 0;
#X connect 1 0 16 0;
#X connect 2 0 4 0;
#X connect 3 0 16 0;
#X connect 4 0 3 0;
#X connect 5 0 7 0;
#X connect 6 0 18 0;
#X connect 7 1 19 0;
#X connect 8 0 9 0;
#X connect 9 0 6 0;
#X connect 10 0 8 0;
#X connect 11 0 13 0;
#X connect 12 0 13 0;
#X connect 13 0 16 0;
#X connect 14 0 15 0;
#X connect 14 0 18 1;
#X connect 15 0 12 0;
#X connect 15 1 2 0;
#X connect 15 1 17 0;
#X connect 16 0 5 0;
#X connect 16 0 28 0;
#X connect 17 0 3 0;
#X connect 17 1 5 1;
#X connect 17 1 1 0;
#X connect 18 0 16 0;
#X connect 19 0 6 0;
#X connect 20 0 2 1;
#X connect 20 0 29 0;
#X connect 22 0 10 0;
#X connect 22 0 8 1;
#X connect 24 0 10 0;
#X connect 24 0 8 0;
#X connect 26 0 11 0;
#X connect 29 0 2 0;
#X connect 29 1 2 1;
#X coords 0 0 1 1 120 160 0;
#X restore 309 569 pd adsr1;
#X text -294 199 pitch;
#X obj -82 816 *~;
#X obj -95 943 outlet~;
#X text -241 200 gate;
#X obj 310 611 line~;
#X msg 311 588 \$1 1.6;
#X obj -114 516 *;
#X obj -72 557 *;
#X obj -215 550 *;
#X obj -81 581 *;
#X obj -5 317 *;
#X obj -21 368 * 10000;
#X obj -19 345 *;
#X obj 30 338 *;
#X obj 29 387 * 10000;
#X obj 31 364 *;
#X obj 80 349 *;
#X obj 79 398 * 10000;
#X obj 81 375 *;
#N canvas 102 79 1108 856 adsr1 0;
#X obj -143 147 inlet;
#X msg 15 502 0;
#X obj 63 365 pack f f;
#X msg -148 457 0.78125 710.297;
#X msg 64 391 set \$1 \$2;
#X obj 125 589 >=;
#X msg 216 752 0.35 6066.77;
#X obj 157 632 moses 0.001;
#X obj 150 406 pack f f;
#X msg 151 436 set \$1 \$2;
#X msg 170 319 bang;
#X msg 313 372 set 0 \$1;
#X msg -135 357 bang;
#X msg -136 523 0 150.062;
#X obj -145 184 clip 0 1;
#X obj -113 211 moses 0.001;
#X obj 18 565 line 0 1;
#X obj -20 376 t f f;
#X obj 9 720 spigot;
#X obj 228 693 delay 0;
#X obj -49 150 inlet;
#X text -8 150 att;
#X obj 22 153 inlet;
#X text 63 153 dec;
#X obj 93 150 inlet;
#X text 134 152 sus;
#X obj 170 152 inlet;
#X text 211 152 rel;
#X obj -95 781 outlet;
#X obj -3 199 t b f;
#X connect 0 0 14 0;
#X connect 1 0 16 0;
#X connect 2 0 4 0;
#X connect 3 0 16 0;
#X connect 4 0 3 0;
#X connect 5 0 7 0;
#X connect 6 0 18 0;
#X connect 7 1 19 0;
#X connect 8 0 9 0;
#X connect 9 0 6 0;
#X connect 10 0 8 0;
#X connect 11 0 13 0;
#X connect 12 0 13 0;
#X connect 13 0 16 0;
#X connect 14 0 15 0;
#X connect 14 0 18 1;
#X connect 15 0 12 0;
#X connect 15 1 2 0;
#X connect 15 1 17 0;
#X connect 16 0 5 0;
#X connect 16 0 28 0;
#X connect 17 0 3 0;
#X connect 17 1 5 1;
#X connect 17 1 1 0;
#X connect 18 0 16 0;
#X connect 19 0 6 0;
#X connect 20 0 2 1;
#X connect 20 0 29 0;
#X connect 22 0 10 0;
#X connect 22 0 8 1;
#X connect 24 0 10 0;
#X connect 24 0 8 0;
#X connect 26 0 11 0;
#X connect 29 0 2 0;
#X connect 29 1 2 1;
#X coords 0 0 1 1 120 160 0;
#X restore 12 486 pd adsr1;
#X obj 13 528 line~;
#X msg 14 505 \$1 1.6;
#X obj -119 768 abs_fm_op1;
#X obj -146 693 *~;
#X obj -167 662 *~;
#X obj -209 587 abs_fm_op1;
#X obj -24 573 *~;
#X obj 291 637 *~;
#X obj 58 671 *;
#X obj -96 916 +~;
#X obj -74 886 *~;
#X obj -136 889 *~;
#X obj -129 834 * -1;
#X obj -129 858 + 1;
#X obj -259 315 / 128;
#X obj -260 346 *;
#X text -291 157 2op fm voice;
#X obj -73 210 inlet;
#X text -77 187 fb1 0..0.5;
#X obj -9 211 inlet;
#X obj -124 215 inlet;
#X text -126 198 ratio;
#X obj -190 214 inlet;
#X text -191 195 keytrack;
#X obj 102 202 inlet;
#X obj 42 274 unpack f f f f;
#X obj 169 200 inlet;
#X text 170 186 balance;
#X obj 227 201 inlet;
#X text 226 188 fm;
#X text 100 187 adsr1 list;
#X text -2 191 waveparams1 list;
#X obj 288 199 inlet;
#X obj 354 199 inlet;
#X obj 463 198 inlet;
#X text 284 176 fb2 0..0.5;
#X text 361 179 waveparams2 list;
#X text 461 183 adsr2 list;
#X obj 444 286 unpack f f f f;
#X obj -115 664 +~;
#X obj -117 623 *~;
#X connect 0 0 1 0;
#X connect 0 0 48 0;
#X connect 1 0 22 0;
#X connect 1 0 36 0;
#X connect 2 0 6 0;
#X connect 3 0 5 1;
#X connect 3 0 5 0;
#X connect 4 0 13 1;
#X connect 5 0 4 0;
#X connect 6 0 13 0;
#X connect 6 0 33 0;
#X connect 7 0 9 1;
#X connect 7 0 9 0;
#X connect 8 0 13 2;
#X connect 9 0 8 0;
#X connect 10 0 12 1;
#X connect 10 0 12 0;
#X connect 11 0 13 4;
#X connect 12 0 11 0;
#X connect 13 0 19 0;
#X connect 15 0 44 0;
#X connect 18 0 41 0;
#X connect 18 0 41 1;
#X connect 19 0 18 0;
#X connect 20 0 39 3;
#X connect 21 0 23 1;
#X connect 21 0 23 0;
#X connect 22 0 39 0;
#X connect 23 0 73 1;
#X connect 23 0 74 1;
#X connect 24 0 26 1;
#X connect 24 0 26 0;
#X connect 25 0 33 1;
#X connect 26 0 25 0;
#X connect 27 0 29 1;
#X connect 27 0 29 0;
#X connect 28 0 33 2;
#X connect 29 0 28 0;
#X connect 30 0 32 1;
#X connect 30 0 32 0;
#X connect 31 0 33 4;
#X connect 32 0 31 0;
#X connect 33 0 35 0;
#X connect 34 0 40 0;
#X connect 34 0 40 1;
#X connect 35 0 34 0;
#X connect 36 0 15 0;
#X connect 37 0 36 1;
#X connect 38 0 37 0;
#X connect 38 0 45 0;
#X connect 39 0 38 0;
#X connect 40 0 38 1;
#X connect 41 0 15 1;
#X connect 42 0 36 3;
#X connect 43 0 16 0;
#X connect 44 0 43 1;
#X connect 45 0 43 0;
#X connect 46 0 47 0;
#X connect 47 0 45 1;
#X connect 48 0 49 0;
#X connect 49 0 74 0;
#X connect 51 0 20 1;
#X connect 51 0 20 0;
#X connect 53 0 39 2;
#X connect 54 0 22 1;
#X connect 56 0 49 1;
#X connect 58 0 59 0;
#X connect 59 0 24 1;
#X connect 59 0 24 0;
#X connect 59 1 27 1;
#X connect 59 1 27 0;
#X connect 59 2 33 3;
#X connect 59 3 30 1;
#X connect 59 3 30 0;
#X connect 60 0 44 1;
#X connect 60 0 46 0;
#X connect 62 0 21 1;
#X connect 62 0 21 0;
#X connect 66 0 42 1;
#X connect 66 0 42 0;
#X connect 67 0 36 2;
#X connect 68 0 72 0;
#X connect 72 0 3 1;
#X connect 72 0 3 0;
#X connect 72 1 7 1;
#X connect 72 1 7 0;
#X connect 72 2 13 3;
#X connect 72 3 10 1;
#X connect 72 3 10 0;
#X connect 73 0 37 1;
#X connect 74 0 73 0;
#X coords 0 851 1 850 200 120 0;
#X restore -660 842 pd two_ops_1_synth_voice;
#N canvas 241 83 1172 851 two_ops_1_synth_voice 0;
#X obj -291 214 inlet;
#X obj -345 450 mtof;
#X obj -244 213 inlet;
#X obj 295 440 *;
#X obj 294 489 * 10000;
#X obj 296 466 *;
#X obj -244 236 clip 0 1;
#X obj 355 445 *;
#X obj 354 494 * 10000;
#X obj 356 471 *;
#X obj 403 467 *;
#X obj 402 516 * 10000;
#X obj 404 493 *;
#N canvas 100 80 1108 856 adsr1 0;
#X obj -143 147 inlet;
#X msg 15 502 0;
#X obj 63 365 pack f f;
#X msg -148 457 0.78125 1;
#X msg 64 391 set \$1 \$2;
#X obj 125 589 >=;
#X msg 216 752 0.6625 625.25;
#X obj 157 632 moses 0.001;
#X obj 150 406 pack f f;
#X msg 151 436 set \$1 \$2;
#X msg 170 319 bang;
#X msg 313 372 set 0 \$1;
#X msg -135 357 bang;
#X msg -136 523 0 530.842;
#X obj -145 184 clip 0 1;
#X obj -113 211 moses 0.001;
#X obj 18 565 line 0 1;
#X obj -20 376 t f f;
#X obj 9 720 spigot;
#X obj 228 693 delay 0;
#X obj -49 150 inlet;
#X text -8 150 att;
#X obj 22 153 inlet;
#X text 63 153 dec;
#X obj 93 150 inlet;
#X text 134 152 sus;
#X obj 170 152 inlet;
#X text 211 152 rel;
#X obj -95 781 outlet;
#X obj -3 199 t b f;
#X connect 0 0 14 0;
#X connect 1 0 16 0;
#X connect 2 0 4 0;
#X connect 3 0 16 0;
#X connect 4 0 3 0;
#X connect 5 0 7 0;
#X connect 6 0 18 0;
#X connect 7 1 19 0;
#X connect 8 0 9 0;
#X connect 9 0 6 0;
#X connect 10 0 8 0;
#X connect 11 0 13 0;
#X connect 12 0 13 0;
#X connect 13 0 16 0;
#X connect 14 0 15 0;
#X connect 14 0 18 1;
#X connect 15 0 12 0;
#X connect 15 1 2 0;
#X connect 15 1 17 0;
#X connect 16 0 5 0;
#X connect 16 0 28 0;
#X connect 17 0 3 0;
#X connect 17 1 5 1;
#X connect 17 1 1 0;
#X connect 18 0 16 0;
#X connect 19 0 6 0;
#X connect 20 0 2 1;
#X connect 20 0 29 0;
#X connect 22 0 10 0;
#X connect 22 0 8 1;
#X connect 24 0 10 0;
#X connect 24 0 8 0;
#X connect 26 0 11 0;
#X connect 29 0 2 0;
#X connect 29 1 2 1;
#X coords 0 0 1 1 120 160 0;
#X restore 309 569 pd adsr1;
#X text -294 199 pitch;
#X obj -82 816 *~;
#X obj -95 943 outlet~;
#X text -241 200 gate;
#X obj 310 611 line~;
#X msg 311 588 \$1 1.6;
#X obj -114 516 *;
#X obj -72 557 *;
#X obj -215 550 *;
#X obj -81 581 *;
#X obj -5 317 *;
#X obj -21 368 * 10000;
#X obj -19 345 *;
#X obj 30 338 *;
#X obj 29 387 * 10000;
#X obj 31 364 *;
#X obj 80 349 *;
#X obj 79 398 * 10000;
#X obj 81 375 *;
#N canvas 102 79 1108 856 adsr1 0;
#X obj -143 147 inlet;
#X msg 15 502 0;
#X obj 63 365 pack f f;
#X msg -148 457 0.78125 710.297;
#X msg 64 391 set \$1 \$2;
#X obj 125 589 >=;
#X msg 216 752 0.35 6066.77;
#X obj 157 632 moses 0.001;
#X obj 150 406 pack f f;
#X msg 151 436 set \$1 \$2;
#X msg 170 319 bang;
#X msg 313 372 set 0 \$1;
#X msg -135 357 bang;
#X msg -136 523 0 150.062;
#X obj -145 184 clip 0 1;
#X obj -113 211 moses 0.001;
#X obj 18 565 line 0 1;
#X obj -20 376 t f f;
#X obj 9 720 spigot;
#X obj 228 693 delay 0;
#X obj -49 150 inlet;
#X text -8 150 att;
#X obj 22 153 inlet;
#X text 63 153 dec;
#X obj 93 150 inlet;
#X text 134 152 sus;
#X obj 170 152 inlet;
#X text 211 152 rel;
#X obj -95 781 outlet;
#X obj -3 199 t b f;
#X connect 0 0 14 0;
#X connect 1 0 16 0;
#X connect 2 0 4 0;
#X connect 3 0 16 0;
#X connect 4 0 3 0;
#X connect 5 0 7 0;
#X connect 6 0 18 0;
#X connect 7 1 19 0;
#X connect 8 0 9 0;
#X connect 9 0 6 0;
#X connect 10 0 8 0;
#X connect 11 0 13 0;
#X connect 12 0 13 0;
#X connect 13 0 16 0;
#X connect 14 0 15 0;
#X connect 14 0 18 1;
#X connect 15 0 12 0;
#X connect 15 1 2 0;
#X connect 15 1 17 0;
#X connect 16 0 5 0;
#X connect 16 0 28 0;
#X connect 17 0 3 0;
#X connect 17 1 5 1;
#X connect 17 1 1 0;
#X connect 18 0 16 0;
#X connect 19 0 6 0;
#X connect 20 0 2 1;
#X connect 20 0 29 0;
#X connect 22 0 10 0;
#X connect 22 0 8 1;
#X connect 24 0 10 0;
#X connect 24 0 8 0;
#X connect 26 0 11 0;
#X connect 29 0 2 0;
#X connect 29 1 2 1;
#X coords 0 0 1 1 120 160 0;
#X restore 12 486 pd adsr1;
#X obj 13 528 line~;
#X msg 14 505 \$1 1.6;
#X obj -119 768 abs_fm_op1;
#X obj -146 693 *~;
#X obj -167 662 *~;
#X obj -209 587 abs_fm_op1;
#X obj -24 573 *~;
#X obj 291 637 *~;
#X obj 58 671 *;
#X obj -96 916 +~;
#X obj -74 886 *~;
#X obj -136 889 *~;
#X obj -129 834 * -1;
#X obj -129 858 + 1;
#X obj -259 315 / 128;
#X obj -260 346 *;
#X text -291 157 2op fm voice;
#X obj -73 210 inlet;
#X text -77 187 fb1 0..0.5;
#X obj -9 211 inlet;
#X obj -124 215 inlet;
#X text -126 198 ratio;
#X obj -190 214 inlet;
#X text -191 195 keytrack;
#X obj 102 202 inlet;
#X obj 42 274 unpack f f f f;
#X obj 169 200 inlet;
#X text 170 186 balance;
#X obj 227 201 inlet;
#X text 226 188 fm;
#X text 100 187 adsr1 list;
#X text -2 191 waveparams1 list;
#X obj 288 199 inlet;
#X obj 354 199 inlet;
#X obj 463 198 inlet;
#X text 284 176 fb2 0..0.5;
#X text 361 179 waveparams2 list;
#X text 461 183 adsr2 list;
#X obj 444 286 unpack f f f f;
#X obj -115 664 +~;
#X obj -117 623 *~;
#X connect 0 0 1 0;
#X connect 0 0 48 0;
#X connect 1 0 22 0;
#X connect 1 0 36 0;
#X connect 2 0 6 0;
#X connect 3 0 5 1;
#X connect 3 0 5 0;
#X connect 4 0 13 1;
#X connect 5 0 4 0;
#X connect 6 0 13 0;
#X connect 6 0 33 0;
#X connect 7 0 9 1;
#X connect 7 0 9 0;
#X connect 8 0 13 2;
#X connect 9 0 8 0;
#X connect 10 0 12 1;
#X connect 10 0 12 0;
#X connect 11 0 13 4;
#X connect 12 0 11 0;
#X connect 13 0 19 0;
#X connect 15 0 44 0;
#X connect 18 0 41 0;
#X connect 18 0 41 1;
#X connect 19 0 18 0;
#X connect 20 0 39 3;
#X connect 21 0 23 1;
#X connect 21 0 23 0;
#X connect 22 0 39 0;
#X connect 23 0 73 1;
#X connect 23 0 74 1;
#X connect 24 0 26 1;
#X connect 24 0 26 0;
#X connect 25 0 33 1;
#X connect 26 0 25 0;
#X connect 27 0 29 1;
#X connect 27 0 29 0;
#X connect 28 0 33 2;
#X connect 29 0 28 0;
#X connect 30 0 32 1;
#X connect 30 0 32 0;
#X connect 31 0 33 4;
#X connect 32 0 31 0;
#X connect 33 0 35 0;
#X connect 34 0 40 0;
#X connect 34 0 40 1;
#X connect 35 0 34 0;
#X connect 36 0 15 0;
#X connect 37 0 36 1;
#X connect 38 0 37 0;
#X connect 38 0 45 0;
#X connect 39 0 38 0;
#X connect 40 0 38 1;
#X connect 41 0 15 1;
#X connect 42 0 36 3;
#X connect 43 0 16 0;
#X connect 44 0 43 1;
#X connect 45 0 43 0;
#X connect 46 0 47 0;
#X connect 47 0 45 1;
#X connect 48 0 49 0;
#X connect 49 0 74 0;
#X connect 51 0 20 1;
#X connect 51 0 20 0;
#X connect 53 0 39 2;
#X connect 54 0 22 1;
#X connect 56 0 49 1;
#X connect 58 0 59 0;
#X connect 59 0 24 1;
#X connect 59 0 24 0;
#X connect 59 1 27 1;
#X connect 59 1 27 0;
#X connect 59 2 33 3;
#X connect 59 3 30 1;
#X connect 59 3 30 0;
#X connect 60 0 44 1;
#X connect 60 0 46 0;
#X connect 62 0 21 1;
#X connect 62 0 21 0;
#X connect 66 0 42 1;
#X connect 66 0 42 0;
#X connect 67 0 36 2;
#X connect 68 0 72 0;
#X connect 72 0 3 1;
#X connect 72 0 3 0;
#X connect 72 1 7 1;
#X connect 72 1 7 0;
#X connect 72 2 13 3;
#X connect 72 3 10 1;
#X connect 72 3 10 0;
#X connect 73 0 37 1;
#X connect 74 0 73 0;
#X coords 0 851 1 850 200 120 0;
#X restore -500 844 pd two_ops_1_synth_voice;
#X obj -346 173 route 1 2 3 4 5 6;
#X obj -542 650 +;
#X obj -570 621 int;
#X obj -554 593 unpack 0 0;
#X obj -616 709 +;
#X obj -650 680 int;
#X obj -628 652 unpack 0 0;
#X text -122 2 2013 martin brinkmann;
#X text -123 -19 2op 6 voice fm synth;
#X obj -313 54 / 128;
#X obj -319 1004 *~ 0.33;
#X connect 0 0 61 0;
#X connect 0 0 83 9;
#X connect 1 0 62 0;
#X connect 1 0 83 10;
#X connect 2 0 64 0;
#X connect 2 0 83 12;
#X connect 3 0 63 0;
#X connect 3 0 83 11;
#X connect 4 0 6 0;
#X connect 4 0 83 1;
#X connect 6 0 7 0;
#X connect 6 1 8 0;
#X connect 6 2 10 0;
#X connect 6 3 9 0;
#X connect 6 4 11 0;
#X connect 7 0 23 0;
#X connect 8 0 23 0;
#X connect 9 0 23 0;
#X connect 10 0 23 0;
#X connect 11 0 23 0;
#X connect 12 0 24 0;
#X connect 12 0 83 8;
#X connect 13 0 83 15;
#X connect 13 0 87 0;
#X connect 14 0 59 3;
#X connect 14 0 65 3;
#X connect 14 0 67 3;
#X connect 14 0 68 3;
#X connect 14 0 83 14;
#X connect 14 0 100 3;
#X connect 14 0 101 3;
#X connect 15 0 55 0;
#X connect 15 0 83 2;
#X connect 16 0 56 0;
#X connect 16 0 83 3;
#X connect 17 0 58 0;
#X connect 17 0 83 5;
#X connect 18 0 57 0;
#X connect 18 0 83 4;
#X connect 19 0 69 1;
#X connect 19 0 94 0;
#X connect 20 0 83 7;
#X connect 20 0 96 0;
#X connect 21 0 59 7;
#X connect 21 0 65 7;
#X connect 21 0 67 7;
#X connect 21 0 68 7;
#X connect 21 0 83 6;
#X connect 21 0 100 7;
#X connect 21 0 101 7;
#X connect 22 0 59 2;
#X connect 22 0 65 2;
#X connect 22 0 67 2;
#X connect 22 0 68 2;
#X connect 22 0 83 13;
#X connect 22 0 100 2;
#X connect 22 0 101 2;
#X connect 23 0 59 5;
#X connect 23 0 65 5;
#X connect 23 0 67 5;
#X connect 23 0 68 5;
#X connect 23 0 100 5;
#X connect 23 0 101 5;
#X connect 24 0 25 0;
#X connect 24 1 26 0;
#X connect 24 2 28 0;
#X connect 24 3 27 0;
#X connect 24 4 29 0;
#X connect 25 0 30 0;
#X connect 26 0 30 0;
#X connect 27 0 30 0;
#X connect 28 0 30 0;
#X connect 29 0 30 0;
#X connect 30 0 59 10;
#X connect 30 0 65 10;
#X connect 30 0 67 10;
#X connect 30 0 68 10;
#X connect 30 0 100 10;
#X connect 30 0 101 10;
#X connect 31 0 68 0;
#X connect 32 0 34 0;
#X connect 33 0 36 0;
#X connect 34 0 33 0;
#X connect 35 0 31 0;
#X connect 36 0 41 0;
#X connect 38 0 66 0;
#X connect 39 0 35 0;
#X connect 39 1 68 1;
#X connect 40 0 102 0;
#X connect 41 0 35 0;
#X connect 41 0 43 0;
#X connect 41 0 46 0;
#X connect 41 0 49 0;
#X connect 41 0 104 0;
#X connect 41 0 107 0;
#X connect 41 1 31 1;
#X connect 41 1 42 1;
#X connect 41 1 45 1;
#X connect 41 1 48 1;
#X connect 41 1 103 1;
#X connect 41 1 106 1;
#X connect 42 0 67 0;
#X connect 43 0 42 0;
#X connect 44 0 43 0;
#X connect 44 1 67 1;
#X connect 45 0 65 0;
#X connect 46 0 45 0;
#X connect 47 0 46 0;
#X connect 47 1 65 1;
#X connect 48 0 59 0;
#X connect 49 0 48 0;
#X connect 50 0 49 0;
#X connect 50 1 59 1;
#X connect 51 0 38 0;
#X connect 52 0 111 0;
#X connect 53 0 32 0;
#X connect 54 0 59 6;
#X connect 54 0 65 6;
#X connect 54 0 67 6;
#X connect 54 0 68 6;
#X connect 54 0 100 6;
#X connect 54 0 101 6;
#X connect 55 0 54 0;
#X connect 56 0 55 0;
#X connect 56 1 54 1;
#X connect 57 0 55 0;
#X connect 57 1 54 2;
#X connect 58 0 55 0;
#X connect 58 1 54 3;
#X connect 59 0 112 0;
#X connect 60 0 59 11;
#X connect 60 0 65 11;
#X connect 60 0 67 11;
#X connect 60 0 68 11;
#X connect 60 0 100 11;
#X connect 60 0 101 11;
#X connect 61 0 60 0;
#X connect 62 0 61 0;
#X connect 62 1 60 1;
#X connect 63 0 61 0;
#X connect 63 1 60 2;
#X connect 64 0 61 0;
#X connect 64 1 60 3;
#X connect 65 0 112 0;
#X connect 66 0 40 0;
#X connect 66 1 40 1;
#X connect 66 2 40 2;
#X connect 67 0 112 0;
#X connect 68 0 112 0;
#X connect 69 0 83 0;
#X connect 73 0 90 0;
#X connect 75 0 81 0;
#X connect 78 0 69 0;
#X connect 80 0 83 16;
#X connect 80 0 88 1;
#X connect 80 0 88 0;
#X connect 80 0 89 0;
#X connect 81 0 19 0;
#X connect 81 1 4 0;
#X connect 81 2 15 0;
#X connect 81 3 16 0;
#X connect 81 4 18 0;
#X connect 81 5 17 0;
#X connect 81 6 21 0;
#X connect 81 7 20 0;
#X connect 81 8 12 0;
#X connect 81 9 0 0;
#X connect 81 10 1 0;
#X connect 81 11 3 0;
#X connect 81 12 2 0;
#X connect 81 13 22 0;
#X connect 81 14 14 0;
#X connect 81 15 13 0;
#X connect 81 16 80 0;
#X connect 81 17 82 0;
#X connect 82 0 83 17;
#X connect 82 0 91 1;
#X connect 82 0 91 0;
#X connect 82 0 92 0;
#X connect 83 0 84 0;
#X connect 84 0 77 0;
#X connect 85 0 87 0;
#X connect 85 0 94 0;
#X connect 85 0 96 0;
#X connect 85 1 86 0;
#X connect 85 1 93 0;
#X connect 86 0 87 1;
#X connect 87 0 59 8;
#X connect 87 0 65 8;
#X connect 87 0 67 8;
#X connect 87 0 68 8;
#X connect 87 0 100 8;
#X connect 87 0 101 8;
#X connect 88 0 89 1;
#X connect 89 0 86 1;
#X connect 90 0 85 0;
#X connect 91 0 92 1;
#X connect 92 0 93 1;
#X connect 93 0 94 1;
#X connect 93 0 96 1;
#X connect 94 0 95 0;
#X connect 95 0 59 4;
#X connect 95 0 65 4;
#X connect 95 0 67 4;
#X connect 95 0 68 4;
#X connect 95 0 100 4;
#X connect 95 0 101 4;
#X connect 96 0 97 0;
#X connect 97 0 59 9;
#X connect 97 0 65 9;
#X connect 97 0 67 9;
#X connect 97 0 68 9;
#X connect 97 0 100 9;
#X connect 97 0 101 9;
#X connect 100 0 112 0;
#X connect 101 0 112 0;
#X connect 102 0 108 0;
#X connect 102 1 105 0;
#X connect 102 2 50 0;
#X connect 102 3 47 0;
#X connect 102 4 44 0;
#X connect 102 5 39 0;
#X connect 103 0 101 0;
#X connect 104 0 103 0;
#X connect 105 0 104 0;
#X connect 105 1 101 1;
#X connect 106 0 100 0;
#X connect 107 0 106 0;
#X connect 108 0 107 0;
#X connect 108 1 100 1;
#X connect 111 0 38 1;
#X connect 112 0 5 0;
#X coords 0 -1 1 1 220 120 1 100 100;
#X restore 13 -36 pd two_ops1p;
#X obj 153 -87 ctlin 1;
#X msg 265 -40 0.15 0 0.1 0.55 0.1375 0.42 0.6375 0.1 0 0.1 0.5275
0.45 0.46 -0.113924 3.5 0.818898 -0.55 0.45;
#X msg 265 -76 0.24375 1 0.1 0.55 0.375 0.42 0.5125 0.2875 3 0.1 0.67375
0.3125 0.41 0.367089 0.5 0.755906 -0.725 0.4875;
#X msg 267 -4 0.15 3 0.37 0.69625 0.5 0.48 0.4125 0.2375 3 0.38125
0.64 0.4875 0.48 0.139241 1.01 0.582677 0.8 0.275;
#X msg 269 30 0.2125 0 0.1 0.51625 0.175 0.45 0.675 0 1 0.1 0.73 0.3375
0.53 -0.0886076 8 0.582677 0.65 0.0875;
#X msg 266 65 0.11875 3 0.1 0.29125 0 0.2 0.6375 0.1625 1 0.1 0.5275
0.45 0.46 0.291139 1 0.834646 -0.025 0.5;
#X msg 266 -99 0 0 0.1 0.5 0 0.2 0.5 0 0 0.1 0.5 0 0.2 0.035 1 0 0
0;
#X msg 269 99 0.1125 1 0.1 0.1 1 0.2 0.5 0.10625 1 0.1 0.1 1 0.2 0.338734
0.51 0.314961 0.75 0.4125;
#X msg 270 133 0.5 0 0.51625 0.88255 0.35 0.35 0.8625 0.075 2 0.1 0.50005
0.6625 0.48 0.465316 3 0.464567 0.525 0.05;
#X text 267 -119 presets;
#X msg 272 171 0.2625 3 0.1 0.59005 0.3625 0.34 1 0.4 2 0.1 0.59005
0.6 0.2 -0.34481 0.5 0.622047 0.75 0.375;
#X text 19 -123 2013 martin brinkmann;
#X text 18 -149 2op 6 voice fm synth \, make 1980s personal keyboard
sounds on a 21st century computer;
#X msg 270 203 0.25 3 0.1 0.25255 0 0.2 0.8875 0.39375 0 0.1 0.5338
0.25 0.3 0.541266 1 0.929134 0 0.3875;
#X obj 618 -130 loadbang;
#N canvas 1 77 977 518 reverb2 0;
#X obj 25 29 inlet~;
#X obj 6 365 outlet~;
#X obj 97 366 outlet~;
#X obj 105 113 hsl 80 10 1 0 0 1 empty empty lv 2 5 0 10 -262144 -1
-1 3000 1;
#X obj 107 195 *;
#X obj 114 228 *;
#X obj 84 164 t b f f;
#X obj 98 253 -;
#X msg 82 231 1;
#X obj 117 285 * 100;
#X obj 76 321 rev2~ 100 90 3000 20;
#X obj 105 126 hsl 80 10 1 0 0 1 empty empty dp 2 5 0 10 -262144 -1
-1 6905 1;
#X obj 180 215 *;
#X obj 184 239 *;
#X obj 171 188 t f f;
#X obj 186 271 * 100;
#X obj 105 138 hsl 80 10 1 0 0 1 empty empty co 2 5 0 10 -262144 -1
-1 7000 1;
#X obj 167 294 * 6000;
#X obj 285 66 inlet;
#X obj 334 67 inlet;
#X connect 0 0 10 0;
#X connect 3 0 6 0;
#X connect 4 0 5 1;
#X connect 4 0 5 0;
#X connect 5 0 7 1;
#X connect 6 0 8 0;
#X connect 6 1 4 0;
#X connect 6 2 4 1;
#X connect 7 0 9 0;
#X connect 8 0 7 0;
#X connect 9 0 10 2;
#X connect 10 0 1 0;
#X connect 10 1 2 0;
#X connect 11 0 14 0;
#X connect 12 0 13 1;
#X connect 12 0 13 0;
#X connect 13 0 15 0;
#X connect 14 0 12 0;
#X connect 14 1 12 1;
#X connect 15 0 10 4;
#X connect 16 0 17 0;
#X connect 17 0 10 3;
#X connect 18 0 3 0;
#X connect 19 0 11 0;
#X coords 0 -1 1 1 143 57 1 100 100;
#X restore 20 210 pd reverb2;
#X obj 691 -62 select 0 1 2 3 4 5 6 7;
#X obj 693 -90 r preset;
#X msg 699 96 2;
#X msg 735 94 3;
#X msg 777 94 4;
#X msg 816 94 5;
#X obj 719 142 s preset;
#N canvas 296 262 649 492 mbtdly1 0;
#X obj -184 117 inlet~;
#X obj 233 69 inlet;
#X obj 132 140 pow -1;
#X obj 153 178 / 4;
#X obj 184 207 *;
#X obj 166 243 * 60000;
#X text 270 70 <- bpm in;
#X obj 102 111 float;
#X obj 112 44 t b f;
#X text 131 -4 beatsynced delay with feedback and mod;
#X obj 61 363 abs_moddelayline1;
#X obj 81 322 +~;
#X obj 122 537 outlet~;
#X obj 121 516 +~;
#X obj 150 455 *~;
#X obj 72 482 *~;
#X obj 88 434 * -1;
#X obj 88 458 + 1;
#X obj 7 16 hsl 96 10 0 0.95 0 1 empty empty feedback 0 5 0 10 -262144
-1 -128992 5197 1;
#X obj 69 1 nbx 3 14 0 32 0 1 empty empty empty 0 -8 0 10 -262144 -1
-1 3 256;
#X obj 7 28 hsl 96 10 0 1 0 1 empty empty dry/wet 0 5 0 10 -262144
-1 -128992 1571 1;
#X obj 231 49 r \$0globalbpm1;
#X obj 367 96 random 8;
#X obj 366 120 + 1;
#X obj 382 32 inlet;
#X text 418 32 random delay time;
#X obj 374 67 t b;
#X obj -108 29 inlet;
#X obj -46 71 / 128;
#X obj -45 100 clip -1 1;
#X obj -40 155 * 300;
#X obj -30 189 lop~ 250;
#X text -108 5 mod;
#X obj 542 37 inlet;
#X obj 585 38 inlet;
#X connect 0 0 10 0;
#X connect 0 0 15 0;
#X connect 1 0 7 0;
#X connect 2 0 3 0;
#X connect 3 0 4 0;
#X connect 4 0 5 0;
#X connect 5 0 11 1;
#X connect 7 0 2 0;
#X connect 8 0 7 0;
#X connect 8 1 4 1;
#X connect 10 0 14 0;
#X connect 11 0 10 1;
#X connect 13 0 12 0;
#X connect 14 0 13 1;
#X connect 15 0 13 0;
#X connect 16 0 17 0;
#X connect 17 0 15 1;
#X connect 18 0 10 2;
#X connect 19 0 8 0;
#X connect 20 0 14 1;
#X connect 20 0 16 0;
#X connect 21 0 7 0;
#X connect 22 0 23 0;
#X connect 23 0 19 0;
#X connect 24 0 26 0;
#X connect 26 0 22 0;
#X connect 27 0 28 0;
#X connect 28 0 29 0;
#X connect 29 0 30 0;
#X connect 30 0 31 0;
#X connect 31 0 11 0;
#X connect 33 0 18 0;
#X connect 34 0 20 0;
#X coords 0 -1 1 1 193 39 1 0 0;
#X restore 13 101 pd mbtdly1;
#X floatatom 320 315 5 0 0 0 - - -;
#N canvas 1 23 976 799 stereochorus2 0;
#X obj 10 37 inlet~;
#X obj 79 738 outlet~;
#X obj 473 654 outlet~;
#X obj 82 422 cos~;
#X obj 73 471 +~ 1;
#X obj 158 448 cos~;
#X obj 163 478 +~ 1;
#X obj 169 318 phasor~;
#X obj 180 548 *~ 0.3;
#X obj 249 456 cos~;
#X obj 257 485 +~ 1;
#X obj 327 453 cos~;
#X obj 332 483 +~ 1;
#X obj 90 548 *~ 0.31;
#X obj 158 420 +~ 0.16666;
#X obj 323 421 +~ 0.5;
#X obj 248 420 +~ 0.33333;
#X obj 402 449 cos~;
#X obj 403 473 +~ 1;
#X obj 428 546 *~ 0.3;
#X obj 477 454 cos~;
#X obj 482 484 +~ 1;
#X obj 493 543 *~ 0.31;
#X obj 392 420 +~ 0.66666;
#X obj 473 422 +~ 0.833333;
#X obj 268 553 *~ 0.29;
#X obj 345 547 *~ 0.29;
#X obj 104 112 hsl 128 10 0 1 0 1 empty empty speed 0 5 0 10 -262144
-1 -162280 7600 1;
#X obj 157 171 t f f;
#X obj 163 195 *;
#X obj 167 223 * 9.9;
#X obj 171 249 + 0.1;
#X obj -7 587 abs_dly_short_vd1;
#X obj 94 505 *~;
#X obj 104 123 hsl 128 10 0 1 0 1 empty empty depth 0 5 0 10 -262144
-1 -162280 600 1;
#X obj 209 162 t f f;
#X obj 215 186 *;
#X obj 221 248 + 1;
#X obj 70 328 *~ 0.16666;
#X obj 345 311 line~;
#X msg 224 278 \$1 30;
#X obj 185 513 *~;
#X obj 122 590 abs_dly_short_vd1;
#X obj 275 521 *~;
#X obj 246 593 abs_dly_short_vd1;
#X obj 365 595 abs_dly_short_vd1;
#X obj 336 514 *~;
#X obj 424 513 *~;
#X obj 494 598 abs_dly_short_vd1;
#X obj 482 516 *~;
#X obj 618 601 abs_dly_short_vd1;
#X obj 221 219 * 20;
#X text 122 39 stereochorus with 6 delays;
#X obj 327 -5 inlet;
#X text 374 -6 speed mod;
#X obj 454 -2 inlet;
#X text 501 -3 depth mod;
#X connect 0 0 38 0;
#X connect 3 0 4 0;
#X connect 4 0 33 0;
#X connect 5 0 6 0;
#X connect 6 0 41 0;
#X connect 7 0 3 0;
#X connect 7 0 14 0;
#X connect 7 0 15 0;
#X connect 7 0 16 0;
#X connect 7 0 23 0;
#X connect 7 0 24 0;
#X connect 8 0 42 1;
#X connect 9 0 10 0;
#X connect 10 0 43 0;
#X connect 11 0 12 0;
#X connect 12 0 46 0;
#X connect 13 0 32 1;
#X connect 14 0 5 0;
#X connect 15 0 11 0;
#X connect 16 0 9 0;
#X connect 17 0 18 0;
#X connect 18 0 47 0;
#X connect 19 0 48 1;
#X connect 20 0 21 0;
#X connect 21 0 49 0;
#X connect 22 0 50 1;
#X connect 23 0 17 0;
#X connect 24 0 20 0;
#X connect 25 0 44 1;
#X connect 26 0 45 1;
#X connect 27 0 28 0;
#X connect 28 0 29 0;
#X connect 28 1 29 1;
#X connect 29 0 30 0;
#X connect 30 0 31 0;
#X connect 31 0 7 0;
#X connect 32 0 1 0;
#X connect 33 0 13 0;
#X connect 34 0 35 0;
#X connect 35 0 36 0;
#X connect 35 1 36 1;
#X connect 36 0 51 0;
#X connect 37 0 40 0;
#X connect 38 0 32 0;
#X connect 38 0 42 0;
#X connect 38 0 44 0;
#X connect 38 0 45 0;
#X connect 38 0 48 0;
#X connect 38 0 50 0;
#X connect 39 0 33 1;
#X connect 39 0 41 1;
#X connect 39 0 43 1;
#X connect 39 0 47 1;
#X connect 39 0 49 1;
#X connect 40 0 39 0;
#X connect 41 0 8 0;
#X connect 42 0 2 0;
#X connect 43 0 25 0;
#X connect 44 0 1 0;
#X connect 45 0 2 0;
#X connect 46 0 26 0;
#X connect 47 0 19 0;
#X connect 48 0 1 0;
#X connect 49 0 22 0;
#X connect 50 0 2 0;
#X connect 51 0 37 0;
#X connect 53 0 27 0;
#X connect 55 0 34 0;
#X coords 0 -1 1 1 135 35 1 100 100;
#X restore 25 155 pd stereochorus2;
#X obj 320 279 r tempo;
#X msg 689 185;
#X obj 386 277 r delay_feedback;
#X obj 60 280 *~ 0.5;
#X obj 115 280 *~ 0.5;
#X obj 500 278 r delay_mix;
#X obj 384 326 r chorus_speed;
#X obj 500 327 r chorus_depth;
#X obj 493 374 r reverb_damping;
#X obj 831 222 vsl 15 128 0 1 0 0 empty empty empty 0 -9 0 10 -262144
-1 -1 1600 1;
#X obj 357 375 r reverb_liveness;
#X obj 717 385 s reverb_damping;
#X obj 571 287;
#X obj 571 307;
#X obj 571 327;
#X obj 571 347;
#X obj 571 367;
#X connect 0 0 3 2;
#X connect 2 0 3 0;
#X connect 2 1 3 1;
#X connect 3 0 27 0;
#X connect 4 0 3 3;
#X connect 5 0 3 4;
#X connect 6 0 3 4;
#X connect 7 0 3 4;
#X connect 8 0 3 4;
#X connect 9 0 3 4;
#X connect 10 0 3 4;
#X connect 11 0 3 4;
#X connect 12 0 3 4;
#X connect 14 0 3 4;
#X connect 17 0 3 4;
#X connect 18 0 8 0;
#X connect 19 0 33 0;
#X connect 19 1 34 0;
#X connect 20 0 6 0;
#X connect 20 1 5 0;
#X connect 20 2 7 0;
#X connect 20 3 8 0;
#X connect 20 4 9 0;
#X connect 20 5 11 0;
#X connect 20 6 12 0;
#X connect 20 7 14 0;
#X connect 20 8 17 0;
#X connect 21 0 20 0;
#X connect 22 0 26 0;
#X connect 23 0 26 0;
#X connect 24 0 26 0;
#X connect 25 0 26 0;
#X connect 27 0 29 0;
#X connect 28 0 27 2;
#X connect 29 0 19 0;
#X connect 29 0 33 0;
#X connect 29 1 19 0;
#X connect 29 1 34 0;
#X connect 30 0 28 0;
#X connect 32 0 27 4;
#X connect 33 0 1 0;
#X connect 34 0 1 1;
#X connect 35 0 27 5;
#X connect 36 0 29 1;
#X connect 37 0 29 2;
#X connect 38 0 19 2;
#X connect 39 0 41 0;
#X connect 40 0 19 1;
#X connect 42 0 43 0;
#X connect 43 0 44 0;
#X connect 44 0 45 0;
#X connect 45 0 46 0;
